<?xml version="1.0" encoding="UTF-8" standalone="no"?>
<!-- FreeHEP Graphics2D Driver#v.lb Revision: 1.27 -->

<svg
   xmlns:dc="http://purl.org/dc/elements/1.1/"
   xmlns:cc="http://creativecommons.org/ns#"
   xmlns:rdf="http://www.w3.org/1999/02/22-rdf-syntax-ns#"
   xmlns:svg="http://www.w3.org/2000/svg"
   xmlns="http://www.w3.org/2000/svg"
   xmlns:sodipodi="http://sodipodi.sourceforge.net/DTD/sodipodi-0.dtd"
   xmlns:inkscape="http://www.inkscape.org/namespaces/inkscape"
   version="1.0"
   width="183.5mm"
   height="88.800003mm"
   id="0"
   inkscape:version="0.47 r22583"
   sodipodi:docname="LondonConjestionCharging.svg">
  <metadata
     id="metadata2949">
    <rdf:RDF>
      <cc:Work
         rdf:about="">
        <dc:format>image/svg+xml</dc:format>
        <dc:type
           rdf:resource="http://purl.org/dc/dcmitype/StillImage" />
        <dc:title></dc:title>
      </cc:Work>
    </rdf:RDF>
  </metadata>
  <defs
     id="defs2947">
    <inkscape:perspective
       sodipodi:type="inkscape:persp3d"
       inkscape:vp_x="0 : 157.32285 : 1"
       inkscape:vp_y="0 : 1000 : 0"
       inkscape:vp_z="650.19684 : 157.32285 : 1"
       inkscape:persp3d-origin="325.09842 : 104.8819 : 1"
       id="perspective2951" />
  </defs>
  <sodipodi:namedview
     pagecolor="#ffffff"
     bordercolor="#666666"
     borderopacity="1"
     objecttolerance="10"
     gridtolerance="10"
     guidetolerance="10"
     inkscape:pageopacity="0"
     inkscape:pageshadow="2"
     inkscape:window-width="1280"
     inkscape:window-height="748"
     id="namedview2945"
     showgrid="false"
     inkscape:zoom="1.0607309"
     inkscape:cx="480.36045"
     inkscape:cy="173.53095"
     inkscape:window-x="-8"
     inkscape:window-y="-8"
     inkscape:window-maximized="1"
     inkscape:current-layer="0" />
  <path
     d="m 0,0 650.19685,0 0,314.6457 -650.19685,0 z"
     style="fill:#ffffff;fill-opacity:1;fill-rule:nonzero;stroke:#000000;stroke-width:0.88582677px;stroke-linecap:square;stroke-linejoin:miter;stroke-miterlimit:4;stroke-opacity:1;stroke-dasharray:none"
     id="2" />
  <ellipse
     sodipodi:ry="7.9724417"
     sodipodi:rx="6.6437006"
     sodipodi:cy="127.02757"
     sodipodi:cx="601.03345"
     d="m 607.67715,127.02757 c 0,4.40306 -2.97449,7.97244 -6.6437,7.97244 -3.66922,0 -6.6437,-3.56938 -6.6437,-7.97244 0,-4.40306 2.97448,-7.97244 6.6437,-7.97244 3.66921,0 6.6437,3.56938 6.6437,7.97244 z"
     ry="7.9724417"
     rx="6.6437006"
     cy="127.02757"
     cx="601.03345"
     style="fill:#7acff5;fill-opacity:1;fill-rule:nonzero;stroke:#000000;stroke-width:0.88582677px;stroke-linecap:square;stroke-linejoin:miter;stroke-miterlimit:4;stroke-opacity:1;stroke-dasharray:none"
     id="3" />
  <ellipse
     sodipodi:ry="7.9724417"
     sodipodi:rx="6.6437006"
     sodipodi:cy="127.02757"
     sodipodi:cx="601.03345"
     d="m 607.67715,127.02757 c 0,4.40306 -2.97449,7.97244 -6.6437,7.97244 -3.66922,0 -6.6437,-3.56938 -6.6437,-7.97244 0,-4.40306 2.97448,-7.97244 6.6437,-7.97244 3.66921,0 6.6437,3.56938 6.6437,7.97244 z"
     ry="7.9724417"
     rx="6.6437006"
     cy="127.02757"
     cx="601.03345"
     style="fill:#7acff5;fill-opacity:1;fill-rule:nonzero;stroke:#000000;stroke-width:0.88582677px;stroke-linecap:butt;stroke-linejoin:round;stroke-opacity:1;stroke-dasharray:none"
     id="4" />
  <path
     d="m 601.47637,135.00001 0,26.5748"
     style="fill:none;stroke:#000000;stroke-width:0.88582677px;stroke-linecap:butt;stroke-linejoin:round;stroke-opacity:1;stroke-dasharray:none"
     id="5" />
  <path
     d="m 588.18897,144.56694 26.5748,0"
     style="fill:none;stroke:#000000;stroke-width:0.88582677px;stroke-linecap:butt;stroke-linejoin:round;stroke-opacity:1;stroke-dasharray:none"
     id="6" />
  <path
     d="m 601.47637,161.57481 -13.2874,21.25985"
     style="fill:none;stroke:#000000;stroke-width:0.88582677px;stroke-linecap:butt;stroke-linejoin:round;stroke-opacity:1;stroke-dasharray:none"
     id="7" />
  <path
     d="m 601.47637,161.57481 13.2874,21.25985"
     style="fill:none;stroke:#000000;stroke-width:0.88582677px;stroke-linecap:butt;stroke-linejoin:round;stroke-opacity:1;stroke-dasharray:none"
     id="8" />
  <ellipse
     sodipodi:ry="7.9724417"
     sodipodi:rx="6.6437006"
     sodipodi:cy="31.358273"
     sodipodi:cx="60.679134"
     d="m 67.322835,31.358273 c 0,4.403058 -2.974486,7.972441 -6.643701,7.972441 -3.669214,0 -6.6437,-3.569383 -6.6437,-7.972441 0,-4.403058 2.974486,-7.972442 6.6437,-7.972442 3.669215,0 6.643701,3.569384 6.643701,7.972442 z"
     ry="7.9724417"
     rx="6.6437006"
     cy="31.358273"
     cx="60.679134"
     style="fill:#7acff5;fill-opacity:1;fill-rule:nonzero;stroke:#000000;stroke-width:0.88582677px;stroke-linecap:square;stroke-linejoin:miter;stroke-miterlimit:4;stroke-opacity:1;stroke-dasharray:none"
     id="9" />
  <ellipse
     sodipodi:ry="7.9724417"
     sodipodi:rx="6.6437006"
     sodipodi:cy="31.358273"
     sodipodi:cx="60.679134"
     d="m 67.322835,31.358273 c 0,4.403058 -2.974486,7.972441 -6.643701,7.972441 -3.669214,0 -6.6437,-3.569383 -6.6437,-7.972441 0,-4.403058 2.974486,-7.972442 6.6437,-7.972442 3.669215,0 6.643701,3.569384 6.643701,7.972442 z"
     ry="7.9724417"
     rx="6.6437006"
     cy="31.358273"
     cx="60.679134"
     style="fill:#7acff5;fill-opacity:1;fill-rule:nonzero;stroke:#000000;stroke-width:0.88582677px;stroke-linecap:butt;stroke-linejoin:round;stroke-opacity:1;stroke-dasharray:none"
     id="10" />
  <path
     d="m 61.122046,39.330714 0,26.574805"
     style="fill:none;stroke:#000000;stroke-width:0.88582677px;stroke-linecap:butt;stroke-linejoin:round;stroke-opacity:1;stroke-dasharray:none"
     id="11" />
  <path
     d="m 47.834645,48.897644 26.574803,0"
     style="fill:none;stroke:#000000;stroke-width:0.88582677px;stroke-linecap:butt;stroke-linejoin:round;stroke-opacity:1;stroke-dasharray:none"
     id="12" />
  <path
     d="M 61.122046,65.905519 47.834645,87.165363"
     style="fill:none;stroke:#000000;stroke-width:0.88582677px;stroke-linecap:butt;stroke-linejoin:round;stroke-opacity:1;stroke-dasharray:none"
     id="13" />
  <path
     d="M 61.122046,65.905519 74.409448,87.165363"
     style="fill:none;stroke:#000000;stroke-width:0.88582677px;stroke-linecap:butt;stroke-linejoin:round;stroke-opacity:1;stroke-dasharray:none"
     id="14" />
  <ellipse
     sodipodi:ry="7.9724417"
     sodipodi:rx="6.6437006"
     sodipodi:cy="127.02757"
     sodipodi:cx="60.679134"
     d="m 67.322835,127.02757 c 0,4.40306 -2.974486,7.97244 -6.643701,7.97244 -3.669214,0 -6.6437,-3.56938 -6.6437,-7.97244 0,-4.40306 2.974486,-7.97244 6.6437,-7.97244 3.669215,0 6.643701,3.56938 6.643701,7.97244 z"
     ry="7.9724417"
     rx="6.6437006"
     cy="127.02757"
     cx="60.679134"
     style="fill:#7acff5;fill-opacity:1;fill-rule:nonzero;stroke:#000000;stroke-width:0.88582677px;stroke-linecap:square;stroke-linejoin:miter;stroke-miterlimit:4;stroke-opacity:1;stroke-dasharray:none"
     id="15" />
  <ellipse
     sodipodi:ry="7.9724417"
     sodipodi:rx="6.6437006"
     sodipodi:cy="127.02757"
     sodipodi:cx="60.679134"
     d="m 67.322835,127.02757 c 0,4.40306 -2.974486,7.97244 -6.643701,7.97244 -3.669214,0 -6.6437,-3.56938 -6.6437,-7.97244 0,-4.40306 2.974486,-7.97244 6.6437,-7.97244 3.669215,0 6.643701,3.56938 6.643701,7.97244 z"
     ry="7.9724417"
     rx="6.6437006"
     cy="127.02757"
     cx="60.679134"
     style="fill:#7acff5;fill-opacity:1;fill-rule:nonzero;stroke:#000000;stroke-width:0.88582677px;stroke-linecap:butt;stroke-linejoin:round;stroke-opacity:1;stroke-dasharray:none"
     id="16" />
  <path
     d="m 61.122046,135.00001 0,26.5748"
     style="fill:none;stroke:#000000;stroke-width:0.88582677px;stroke-linecap:butt;stroke-linejoin:round;stroke-opacity:1;stroke-dasharray:none"
     id="17" />
  <path
     d="m 47.834645,144.56694 26.574803,0"
     style="fill:none;stroke:#000000;stroke-width:0.88582677px;stroke-linecap:butt;stroke-linejoin:round;stroke-opacity:1;stroke-dasharray:none"
     id="18" />
  <path
     d="M 61.122046,161.57481 47.834645,182.83466"
     style="fill:none;stroke:#000000;stroke-width:0.88582677px;stroke-linecap:butt;stroke-linejoin:round;stroke-opacity:1;stroke-dasharray:none"
     id="19" />
  <path
     d="m 61.122046,161.57481 13.287402,21.25985"
     style="fill:none;stroke:#000000;stroke-width:0.88582677px;stroke-linecap:butt;stroke-linejoin:round;stroke-opacity:1;stroke-dasharray:none"
     id="20" />
  <path
     d="m 136.41732,2.1259862 229.42913,0 0,307.2047538 -229.42913,0 z"
     style="fill:#7acff5;fill-opacity:1;fill-rule:nonzero;stroke:#000000;stroke-width:0.88582677px;stroke-linecap:square;stroke-linejoin:miter;stroke-miterlimit:4;stroke-opacity:1;stroke-dasharray:none"
     id="21" />
  <path
     d="m 136.41732,2.1259862 229.42913,0 0,307.2047538 -229.42913,0 z"
     style="fill:#7acff5;fill-opacity:1;fill-rule:nonzero;stroke:#000000;stroke-width:0.88582677px;stroke-linecap:butt;stroke-linejoin:round;stroke-opacity:1;stroke-dasharray:none"
     id="22" />
  <ellipse
     sodipodi:ry="7.9724417"
     sodipodi:rx="6.6437006"
     sodipodi:cy="222.69687"
     sodipodi:cx="60.679134"
     d="m 67.322835,222.69687 c 0,4.40306 -2.974486,7.97244 -6.643701,7.97244 -3.669214,0 -6.6437,-3.56938 -6.6437,-7.97244 0,-4.40306 2.974486,-7.97244 6.6437,-7.97244 3.669215,0 6.643701,3.56938 6.643701,7.97244 z"
     ry="7.9724417"
     rx="6.6437006"
     cy="222.69687"
     cx="60.679134"
     style="fill:#7acff5;fill-opacity:1;fill-rule:nonzero;stroke:#000000;stroke-width:0.88582677px;stroke-linecap:square;stroke-linejoin:miter;stroke-miterlimit:4;stroke-opacity:1;stroke-dasharray:none"
     id="23" />
  <ellipse
     sodipodi:ry="7.9724417"
     sodipodi:rx="6.6437006"
     sodipodi:cy="222.69687"
     sodipodi:cx="60.679134"
     d="m 67.322835,222.69687 c 0,4.40306 -2.974486,7.97244 -6.643701,7.97244 -3.669214,0 -6.6437,-3.56938 -6.6437,-7.97244 0,-4.40306 2.974486,-7.97244 6.6437,-7.97244 3.669215,0 6.643701,3.56938 6.643701,7.97244 z"
     ry="7.9724417"
     rx="6.6437006"
     cy="222.69687"
     cx="60.679134"
     style="fill:#7acff5;fill-opacity:1;fill-rule:nonzero;stroke:#000000;stroke-width:0.88582677px;stroke-linecap:butt;stroke-linejoin:round;stroke-opacity:1;stroke-dasharray:none"
     id="24" />
  <path
     d="m 61.122046,230.66931 0,26.5748"
     style="fill:none;stroke:#000000;stroke-width:0.88582677px;stroke-linecap:butt;stroke-linejoin:round;stroke-opacity:1;stroke-dasharray:none"
     id="25" />
  <path
     d="m 47.834645,240.23624 26.574803,0"
     style="fill:none;stroke:#000000;stroke-width:0.88582677px;stroke-linecap:butt;stroke-linejoin:round;stroke-opacity:1;stroke-dasharray:none"
     id="26" />
  <path
     d="M 61.122046,257.24411 47.834645,278.50396"
     style="fill:none;stroke:#000000;stroke-width:0.88582677px;stroke-linecap:butt;stroke-linejoin:round;stroke-opacity:1;stroke-dasharray:none"
     id="27" />
  <path
     d="m 61.122046,257.24411 13.287402,21.25985"
     style="fill:none;stroke:#000000;stroke-width:0.88582677px;stroke-linecap:butt;stroke-linejoin:round;stroke-opacity:1;stroke-dasharray:none"
     id="28" />
  <ellipse
     sodipodi:ry="21.259844"
     sodipodi:rx="57.578739"
     sodipodi:cy="150.94489"
     sodipodi:cx="247.14568"
     d="m 304.72441,150.94489 c 0,11.74148 -25.77887,21.25984 -57.57873,21.25984 -31.79986,0 -57.57874,-9.51836 -57.57874,-21.25984 0,-11.74149 25.77888,-21.25985 57.57874,-21.25985 31.79986,0 57.57873,9.51836 57.57873,21.25985 z"
     ry="21.259844"
     rx="57.578739"
     cy="150.94489"
     cx="247.14568"
     style="fill:#7acff5;fill-opacity:1;fill-rule:nonzero;stroke:#000000;stroke-width:0.88582677px;stroke-linecap:square;stroke-linejoin:miter;stroke-miterlimit:4;stroke-opacity:1;stroke-dasharray:none"
     id="29" />
  <path
     d="m 304.72441,150.94489 c 0,11.69292 -25.82185,21.25985 -57.57874,21.25985 -31.80119,0 -57.57874,-9.56693 -57.57874,-21.25985 0,-11.74606 25.77755,-21.25984 57.57874,-21.25984 31.75689,0 57.57874,9.51378 57.57874,21.25984 z"
     style="fill:none;stroke:#000000;stroke-width:0.88582677px;stroke-linecap:butt;stroke-linejoin:round;stroke-opacity:1;stroke-dasharray:none"
     id="30" />
  <ellipse
     sodipodi:ry="21.259844"
     sodipodi:rx="35.433071"
     sodipodi:cy="55.2756"
     sodipodi:cx="242.71654"
     d="m 278.14961,55.2756 c 0,11.741488 -15.86393,21.259844 -35.43307,21.259844 -19.56915,0 -35.43307,-9.518356 -35.43307,-21.259844 0,-11.741487 15.86392,-21.259843 35.43307,-21.259843 19.56914,0 35.43307,9.518356 35.43307,21.259843 z"
     ry="21.259844"
     rx="35.433071"
     cy="55.2756"
     cx="242.71654"
     style="fill:#7acff5;fill-opacity:1;fill-rule:nonzero;stroke:#000000;stroke-width:0.88582677px;stroke-linecap:square;stroke-linejoin:miter;stroke-miterlimit:4;stroke-opacity:1;stroke-dasharray:none"
     id="31" />
  <path
     d="m 278.1496,55.275599 c 0,11.692914 -15.90059,21.259844 -35.43307,21.259844 -19.57677,0 -35.43307,-9.56693 -35.43307,-21.259844 0,-11.746064 15.8563,-21.259845 35.43307,-21.259845 19.53248,0 35.43307,9.513781 35.43307,21.259845 z"
     style="fill:none;stroke:#000000;stroke-width:0.88582677px;stroke-linecap:butt;stroke-linejoin:round;stroke-opacity:1;stroke-dasharray:none"
     id="32" />
  <ellipse
     sodipodi:ry="21.259844"
     sodipodi:rx="35.433071"
     sodipodi:cy="246.6142"
     sodipodi:cx="242.71654"
     d="m 278.14961,246.6142 c 0,11.74148 -15.86393,21.25984 -35.43307,21.25984 -19.56915,0 -35.43307,-9.51836 -35.43307,-21.25984 0,-11.74149 15.86392,-21.25985 35.43307,-21.25985 19.56914,0 35.43307,9.51836 35.43307,21.25985 z"
     ry="21.259844"
     rx="35.433071"
     cy="246.6142"
     cx="242.71654"
     style="fill:#7acff5;fill-opacity:1;fill-rule:nonzero;stroke:#000000;stroke-width:0.88582677px;stroke-linecap:square;stroke-linejoin:miter;stroke-miterlimit:4;stroke-opacity:1;stroke-dasharray:none"
     id="33" />
  <path
     d="m 278.1496,246.61419 c 0,11.69291 -15.90059,21.25984 -35.43307,21.25984 -19.57677,0 -35.43307,-9.56693 -35.43307,-21.25984 0,-11.74606 15.8563,-21.25984 35.43307,-21.25984 19.53248,0 35.43307,9.51378 35.43307,21.25984 z"
     style="fill:none;stroke:#000000;stroke-width:0.88582677px;stroke-linecap:butt;stroke-linejoin:round;stroke-opacity:1;stroke-dasharray:none"
     id="34" />
  <text
     style="font-size:9.74409485px;font-style:normal;font-weight:normal;text-align:start;text-anchor:start;fill:#000000;font-family:Arial"
     y="14.881893"
     x="186.90945"
     xml:space="preserve"
     id="35">Congestion Charging System</text>
  <text
     style="font-size:9.74409485px;font-style:normal;font-weight:normal;text-align:start;text-anchor:start;fill:#000000;font-family:Arial"
     y="250.86617"
     x="218.79921"
     xml:space="preserve"
     id="36">Fine Driver</text>
  <text
     style="font-size:9.74409485px;font-style:normal;font-weight:normal;text-align:start;text-anchor:start;fill:#000000;font-family:Arial"
     y="59.527569"
     x="211.71259"
     xml:space="preserve"
     id="37">Exempt Driver</text>
  <text
     style="font-size:9.74409485px;font-style:normal;font-weight:normal;text-align:start;text-anchor:start;fill:#000000;font-family:Arial"
     y="155.19685"
     x="197.53937"
     xml:space="preserve"
     id="38">Pay congestion charge</text>
  <text
     style="font-size:9.74409485px;font-style:normal;font-weight:normal;text-align:start;text-anchor:start;fill:#000000;font-family:Arial"
     y="291.25986"
     x="30.118111"
     xml:space="preserve"
     id="39">Financial Party</text>
  <text
     style="font-size:9.74409485px;font-style:normal;font-weight:normal;text-align:start;text-anchor:start;fill:#000000;font-family:Arial"
     y="195.59056"
     x="11.515748"
     xml:space="preserve"
     id="40">Payment Interface user</text>
  <text
     style="font-size:9.74409485px;font-style:normal;font-weight:normal;text-align:start;text-anchor:start;fill:#000000;font-family:Arial"
     y="99.921265"
     x="25.688976"
     xml:space="preserve"
     id="41">Driver of the Car</text>
  <text
     style="font-size:9.74409485px;font-style:normal;font-weight:normal;text-align:start;text-anchor:start;fill:#000000;font-family:Arial"
     y="195.59056"
     x="566.04327"
     xml:space="preserve"
     id="42">Driving Authority</text>
  <path
     d="m 74.409448,150.94489 115.157482,0"
     style="fill:none;stroke:#000000;stroke-width:0.88582677px;stroke-linecap:butt;stroke-linejoin:round;stroke-opacity:1;stroke-dasharray:none"
     id="43" />
  <path
     d="m 106.29921,102.04726 99.2126,34.01575"
     style="fill:none;stroke:#000000;stroke-width:0.88582677px;stroke-linecap:butt;stroke-linejoin:round;stroke-opacity:1;stroke-dasharray:none"
     id="44" />
  <path
     d="M 74.409448,215.78742 203.74016,165.82678"
     style="fill:none;stroke:#000000;stroke-width:0.88582677px;stroke-linecap:butt;stroke-linejoin:round;stroke-opacity:1;stroke-dasharray:none"
     id="45" />
  <path
     d="m 304.7244,150.94489 282.57874,0"
     style="fill:none;stroke:#000000;stroke-width:0.88582677px;stroke-linecap:butt;stroke-linejoin:round;stroke-opacity:1;stroke-dasharray:none"
     id="46" />
  <path
     d="m 74.409448,55.275597 132.874012,0"
     style="fill:none;stroke:#000000;stroke-width:0.88582677px;stroke-linecap:butt;stroke-linejoin:round;stroke-opacity:1;stroke-dasharray:none"
     id="47" />
  <path
     d="m 263.97637,72.283472 324.2126,47.834648"
     style="fill:none;stroke:#000000;stroke-width:0.88582677px;stroke-linecap:butt;stroke-linejoin:round;stroke-opacity:1;stroke-dasharray:none"
     id="48" />
  <path
     d="m 74.409448,246.61419 132.874012,0"
     style="fill:none;stroke:#000000;stroke-width:0.88582677px;stroke-linecap:butt;stroke-linejoin:round;stroke-opacity:1;stroke-dasharray:none"
     id="49" />
  <path
     d="M 263.97637,229.60632 557.18503,197.71655"
     style="fill:none;stroke:#000000;stroke-width:0.88582677px;stroke-linecap:butt;stroke-linejoin:round;stroke-opacity:1;stroke-dasharray:none"
     id="50" />
</svg>
